{"glyphs":{"0":{"ha":711,"x_min":0,"x_max":642,"o":"m 275 1094 l 594 1094 l 642 1049 l 642 46 l 594 0 l 275 0 l 233 42 l 233 0 l 47 0 l 0 46 l 0 1049 l 47 1094 l 233 1094 l 233 1053 l 275 1094 m 276 1090 l 233 1046 l 232 1046 l 188 1000 l 188 99 l 274 185 l 274 457 l 318 503 l 319 504 l 457 640 l 506 640 l 506 599 l 546 639 l 546 957 l 636 1047 l 593 1090 l 276 1090 m 593 4 l 636 49 l 636 1042 l 551 956 l 551 638 l 506 592 l 504 590 l 368 454 l 318 454 l 318 496 l 278 456 l 278 183 l 189 93 l 232 49 l 233 49 l 276 4 l 593 4 z "},"1":{"ha":628,"x_min":0,"x_max":550,"o":"m 454 96 l 503 96 l 550 49 l 550 0 l 503 0 l 501 0 l 410 0 l 365 44 l 321 0 l 136 0 l 136 42 l 94 0 l 47 0 l 0 46 l 4 49 l 49 4 l 92 4 l 136 49 l 138 49 l 182 94 l 182 1000 l 136 1046 l 136 1086 l 49 999 l 3 999 l 3 1004 l 47 1004 l 136 1093 l 136 1094 l 321 1094 l 368 1049 l 368 49 l 413 4 l 496 4 l 454 46 l 454 96 z "},"2":{"ha":711,"x_min":1,"x_max":643,"o":"m 411 1094 l 596 1094 l 643 1049 l 643 910 l 189 456 l 189 232 l 233 232 l 415 49 l 415 4 l 594 4 l 639 49 l 643 46 l 596 0 l 276 0 l 235 42 l 235 0 l 49 0 l 1 46 l 1 503 l 457 957 l 457 1000 l 411 1046 l 367 1090 l 189 1090 l 189 1046 l 51 908 l 1 908 l 1 957 l 44 999 l 1 999 l 1 1049 l 49 1094 l 140 1094 l 186 1094 l 189 1094 l 369 1094 l 411 1053 l 411 1094 m 7 1004 l 49 1004 l 135 1090 l 51 1090 l 7 1046 l 7 1004 m 231 226 l 189 226 l 189 94 l 233 49 l 235 49 l 278 4 l 411 4 l 411 46 l 231 226 z "},"3":{"ha":711,"x_min":0,"x_max":642,"o":"m 410 1094 l 594 1094 l 642 1049 l 642 774 l 597 729 l 642 685 l 642 46 l 594 0 l 410 0 l 410 42 l 368 0 l 47 0 l 1 46 l 4 49 l 50 4 l 228 4 l 228 49 l 411 232 l 456 232 l 456 638 l 410 682 l 410 726 l 410 728 l 365 772 l 139 772 l 92 818 l 96 822 l 140 776 l 269 776 l 228 819 l 228 1046 l 183 1090 l 6 1090 l 6 1049 l 50 1004 l 96 957 l 96 908 l 47 908 l 0 956 l 0 1004 l 43 1004 l 0 1046 l 0 1094 l 368 1094 l 410 1053 l 410 1094 m 276 776 l 368 776 l 410 735 l 410 775 l 456 821 l 456 1000 l 410 1046 l 365 1090 l 190 1090 l 233 1049 l 233 821 l 276 776 m 365 4 l 410 49 l 456 94 l 456 226 l 413 226 l 233 46 l 233 4 l 365 4 z "},"4":{"ha":756,"x_min":0,"x_max":686,"o":"m 640 408 l 596 408 l 596 94 l 642 49 l 642 0 l 457 0 l 410 46 l 410 450 l 368 408 l 93 408 l 0 501 l 0 549 l 42 590 l 0 590 l 0 639 l 138 776 l 365 1004 l 410 1004 l 410 1049 l 457 1094 l 642 1094 l 642 1046 l 596 1000 l 596 414 l 638 414 l 683 458 l 686 454 l 640 408 m 6 503 l 94 414 l 182 414 l 182 457 l 365 640 l 410 640 l 410 999 l 368 999 l 146 776 l 188 776 l 188 728 l 50 590 l 6 546 l 6 503 m 365 414 l 410 457 l 410 636 l 368 636 l 188 456 l 188 414 l 365 414 z "},"5":{"ha":711,"x_min":0,"x_max":642,"o":"m 504 776 l 594 776 l 642 731 l 642 46 l 594 0 l 410 0 l 410 42 l 368 0 l 188 0 l 139 0 l 47 0 l 0 46 l 0 96 l 43 96 l 0 138 l 0 186 l 50 186 l 182 53 l 182 94 l 411 322 l 456 322 l 456 682 l 410 728 l 365 772 l 275 772 l 233 814 l 233 772 l 47 772 l 0 819 l 0 1049 l 47 1094 l 233 1094 l 233 1053 l 275 1094 l 594 1094 l 642 1049 l 638 1046 l 593 1090 l 504 1090 l 460 1046 l 460 821 l 504 776 m 368 776 l 410 735 l 410 776 l 497 776 l 456 819 l 456 1049 l 497 1090 l 276 1090 l 233 1046 l 232 1046 l 188 1000 l 188 867 l 232 822 l 233 821 l 276 776 l 368 776 m 50 4 l 133 4 l 47 90 l 6 90 l 6 49 l 50 4 m 365 4 l 410 49 l 456 94 l 456 318 l 413 318 l 188 92 l 188 49 l 188 47 l 188 4 l 365 4 z "},"6":{"ha":711,"x_min":0,"x_max":642,"o":"m 464 776 l 594 776 l 642 731 l 642 46 l 594 0 l 275 0 l 233 42 l 233 0 l 47 0 l 0 46 l 0 913 l 183 1094 l 369 1094 l 369 1053 l 411 1094 l 594 1094 l 642 1049 l 638 1046 l 593 1090 l 550 1090 l 506 1046 l 506 819 l 464 776 m 413 1090 l 369 1046 l 368 1046 l 188 864 l 188 821 l 232 776 l 457 776 l 500 821 l 500 1049 l 542 1090 l 413 1090 m 593 4 l 636 49 l 636 408 l 594 408 l 508 322 l 551 322 l 551 274 l 414 136 l 413 136 l 324 46 l 324 4 l 593 4 m 636 414 l 636 728 l 593 772 l 229 772 l 188 814 l 188 94 l 232 49 l 233 49 l 276 4 l 318 4 l 318 49 l 406 136 l 364 136 l 364 185 l 501 322 l 593 414 l 636 414 z "},"7":{"ha":711,"x_min":0,"x_max":642,"o":"m 410 1094 l 594 1094 l 642 1049 l 642 774 l 528 660 l 528 569 l 232 272 l 188 272 l 188 94 l 233 49 l 233 0 l 47 0 l 0 46 l 0 367 l 456 821 l 456 1000 l 410 1046 l 365 1090 l 6 1090 l 6 1049 l 46 1008 l 46 1050 l 94 1050 l 188 957 l 188 908 l 139 908 l 47 1000 l 46 1000 l 0 1046 l 0 1094 l 368 1094 l 410 1053 l 410 1094 m 524 571 l 524 654 l 188 319 l 188 278 l 229 278 l 524 571 z "},"8":{"ha":711,"x_min":0,"x_max":642,"o":"m 275 1094 l 594 1094 l 642 1049 l 642 910 l 508 776 l 594 776 l 642 731 l 642 46 l 594 0 l 410 0 l 410 42 l 368 0 l 47 0 l 0 46 l 0 639 l 133 772 l 47 772 l 0 819 l 0 1049 l 47 1094 l 233 1094 l 233 1053 l 275 1094 m 276 1090 l 233 1046 l 232 1046 l 188 1000 l 188 867 l 232 822 l 233 821 l 276 776 l 365 776 l 410 821 l 410 867 l 593 1050 l 633 1050 l 593 1090 l 276 1090 m 6 49 l 50 4 l 92 4 l 92 49 l 133 90 l 92 90 l 92 139 l 228 276 l 229 278 l 411 458 l 456 458 l 456 682 l 410 728 l 365 772 l 275 772 l 233 814 l 233 772 l 140 772 l 6 638 l 6 49 m 365 4 l 410 49 l 456 94 l 456 454 l 413 454 l 236 278 l 278 278 l 278 228 l 142 92 l 140 90 l 96 46 l 96 4 l 365 4 m 501 776 l 636 913 l 636 1044 l 594 1044 l 414 864 l 414 819 l 371 775 l 410 735 l 410 776 l 501 776 z "},"9":{"ha":711,"x_min":0,"x_max":642,"o":"m 594 1094 l 642 1049 l 642 183 l 458 0 l 274 0 l 274 42 l 232 0 l 47 0 l 1 46 l 4 49 l 50 4 l 92 4 l 92 49 l 411 368 l 456 368 l 456 814 l 413 772 l 47 772 l 0 819 l 0 1049 l 47 1094 l 368 1094 l 410 1053 l 410 1094 l 594 1094 m 6 821 l 50 776 l 224 776 l 183 818 l 92 910 l 92 958 l 133 958 l 47 1044 l 6 1044 l 6 821 m 411 776 l 456 821 l 456 1000 l 410 1046 l 365 1090 l 50 1090 l 10 1050 l 50 1050 l 140 958 l 142 958 l 233 867 l 233 818 l 190 818 l 232 776 l 411 776 m 229 4 l 274 49 l 456 231 l 456 363 l 413 363 l 96 46 l 96 4 l 229 4 z "}," ":{"ha":356,"x_min":0,"x_max":0,"o":""},"!":{"ha":356,"x_min":1,"x_max":233,"o":"m 179 226 l 47 226 l 1 274 l 1 1049 l 47 1094 l 233 1094 l 233 1046 l 188 1000 l 188 321 l 233 275 l 233 226 l 186 226 l 97 138 l 97 99 l 139 140 l 188 140 l 188 92 l 96 0 l 46 0 l 46 49 l 92 94 l 92 139 l 179 226 z "},"\"":{"ha":381,"x_min":1,"x_max":325,"o":"m 94 924 l 50 879 l 1 879 l 1 929 l 46 974 l 1 1018 l 1 1065 l 47 1111 l 51 1107 l 7 1063 l 7 1019 l 49 976 l 93 1021 l 143 1021 l 143 972 l 99 928 l 142 885 l 183 885 l 183 929 l 228 974 l 183 1018 l 183 1065 l 229 1111 l 233 1107 l 188 1063 l 188 1019 l 231 976 l 275 1021 l 325 1021 l 325 972 l 232 879 l 186 879 l 183 879 l 139 879 l 94 924 z "},"#":{"ha":711,"x_min":0,"x_max":644,"o":"m 322 499 l 322 94 l 368 49 l 368 0 l 183 0 l 136 46 l 136 499 l 49 499 l 4 454 l 0 458 l 47 504 l 136 504 l 136 772 l 49 772 l 4 728 l 0 731 l 47 776 l 136 776 l 136 1049 l 183 1094 l 368 1094 l 368 1046 l 322 1000 l 322 776 l 544 776 l 544 1090 l 503 1090 l 414 1000 l 414 867 l 458 822 l 454 818 l 408 864 l 408 1003 l 501 1094 l 550 1094 l 550 776 l 594 776 l 644 729 l 642 726 l 592 772 l 550 772 l 550 686 l 596 686 l 596 638 l 550 592 l 550 504 l 592 504 l 636 549 l 640 546 l 594 499 l 550 499 l 550 0 l 501 0 l 408 92 l 408 231 l 454 275 l 454 410 l 410 454 l 413 458 l 460 413 l 460 274 l 414 228 l 414 94 l 503 4 l 544 4 l 544 499 l 322 499 m 544 772 l 322 772 l 322 504 l 544 504 l 544 590 l 500 590 l 500 639 l 544 685 l 544 772 z "},"$":{"ha":783,"x_min":0,"x_max":731,"o":"m 458 364 l 321 226 l 278 226 l 278 46 l 231 0 l 44 0 l 44 49 l 90 94 l 90 818 l 49 818 l 4 772 l 0 776 l 46 822 l 90 822 l 90 954 l 49 954 l 4 910 l 0 913 l 46 958 l 47 958 l 90 958 l 90 1000 l 44 1046 l 44 1094 l 231 1094 l 275 1051 l 319 1094 l 367 1094 l 503 960 l 635 960 l 685 913 l 682 908 l 633 954 l 507 954 l 639 822 l 685 822 l 731 776 l 728 772 l 683 818 l 639 818 l 594 772 l 503 772 l 458 728 l 458 599 l 501 640 l 550 640 l 550 592 l 458 501 l 458 364 m 592 776 l 632 818 l 281 818 l 321 776 l 592 776 m 632 822 l 500 954 l 278 954 l 278 822 l 632 822 m 321 1090 l 278 1046 l 278 960 l 494 960 l 364 1090 l 321 1090 m 278 232 l 319 232 l 454 367 l 454 499 l 408 499 l 408 549 l 454 593 l 454 731 l 496 772 l 319 772 l 278 814 l 278 232 z "},"%":{"ha":658,"x_min":1,"x_max":597,"o":"m 188 319 l 188 94 l 233 49 l 233 0 l 49 0 l 1 46 l 1 367 l 272 638 l 139 772 l 92 772 l 92 814 l 50 772 l 1 772 l 1 913 l 185 1094 l 231 1094 l 231 1090 l 186 1090 l 6 910 l 6 776 l 49 776 l 92 821 l 93 822 l 185 914 l 233 914 l 233 864 l 143 775 l 276 642 l 410 775 l 410 1000 l 364 1046 l 364 1094 l 550 1094 l 597 1049 l 597 728 l 325 457 l 458 322 l 506 322 l 506 281 l 547 322 l 597 322 l 597 183 l 414 0 l 367 0 l 367 4 l 411 4 l 592 185 l 592 318 l 550 318 l 506 274 l 506 272 l 414 181 l 364 181 l 364 231 l 454 319 l 322 453 l 188 319 z "},"&":{"ha":756,"x_min":0,"x_max":686,"o":"m 232 0 l 47 0 l 0 46 l 0 367 l 272 639 l 272 682 l 46 910 l 46 1049 l 93 1094 l 367 1094 l 408 1053 l 408 1094 l 594 1094 l 642 1049 l 642 774 l 368 501 l 368 413 l 503 278 l 504 276 l 547 233 l 636 321 l 636 365 l 642 365 l 642 319 l 551 229 l 686 94 l 686 44 l 644 44 l 686 4 l 682 0 l 638 44 l 638 46 l 503 181 l 322 0 l 274 0 l 232 42 l 232 0 m 496 278 l 364 410 l 364 496 l 188 319 l 188 94 l 232 49 l 276 4 l 319 4 l 499 183 l 454 228 l 454 278 l 496 278 m 50 913 l 278 685 l 278 644 l 454 821 l 454 1000 l 410 1046 l 408 1046 l 365 1090 l 94 1090 l 50 1046 l 50 913 z "},"'":{"ha":197,"x_min":0,"x_max":142,"o":"m 94 1014 l 50 969 l 0 969 l 0 1018 l 93 1111 l 142 1111 l 142 1063 l 97 1018 l 142 974 l 142 926 l 96 879 l 92 883 l 136 928 l 136 971 l 94 1014 z "},"(":{"ha":378,"x_min":1,"x_max":325,"o":"m 1 957 l 139 1094 l 325 1094 l 325 1046 l 188 910 l 188 185 l 325 49 l 325 0 l 139 0 l 1 138 l 1 957 z "},")":{"ha":378,"x_min":1,"x_max":325,"o":"m 325 138 l 186 0 l 1 0 l 1 49 l 138 185 l 138 910 l 1 1046 l 1 1094 l 186 1094 l 325 957 l 325 138 z "},"*":{"ha":197,"x_min":1,"x_max":142,"o":"m 142 1111 l 142 1063 l 97 1018 l 140 975 l 138 971 l 94 1014 l 50 971 l 1 971 l 1 1019 l 44 1064 l 1 1107 l 6 1110 l 49 1067 l 93 1111 l 142 1111 z "},"+":{"ha":475,"x_min":0,"x_max":414,"o":"m 318 772 l 318 814 l 276 772 l 185 772 l 142 728 l 142 639 l 186 594 l 182 590 l 136 638 l 136 731 l 178 772 l 47 772 l 0 818 l 4 822 l 49 776 l 138 776 l 182 821 l 182 911 l 228 958 l 232 954 l 186 910 l 186 818 l 144 776 l 274 776 l 318 821 l 318 822 l 365 868 l 414 868 l 414 818 l 367 772 l 318 772 z "},",":{"ha":197,"x_min":0,"x_max":142,"o":"m 94 44 l 50 0 l 0 0 l 0 49 l 93 140 l 142 140 l 142 92 l 97 47 l 142 3 l 142 -90 l 96 -136 l 92 -132 l 136 -87 l 136 1 l 94 44 z "},"-":{"ha":475,"x_min":0,"x_max":414,"o":"m 276 772 l 47 772 l 0 818 l 4 822 l 49 776 l 274 776 l 318 821 l 318 822 l 365 868 l 414 868 l 414 818 l 367 772 l 318 772 l 318 814 l 276 772 z "},".":{"ha":197,"x_min":0,"x_max":142,"o":"m 142 92 l 50 0 l 0 0 l 0 49 l 93 140 l 142 140 l 142 92 z "},"/":{"ha":419,"x_min":0,"x_max":369,"o":"m 369 1049 l 369 774 l 192 594 l 233 594 l 233 546 l 188 500 l 186 499 l 6 318 l 6 47 l 50 3 l 47 0 l 0 46 l 0 321 l 179 499 l 138 499 l 138 549 l 183 594 l 364 775 l 364 1046 l 319 1090 l 324 1094 l 369 1049 z "},":":{"ha":197,"x_min":0,"x_max":142,"o":"m 142 92 l 50 0 l 0 0 l 0 49 l 93 140 l 133 140 l 92 183 l 92 360 l 50 318 l 0 318 l 0 367 l 93 458 l 142 458 l 142 410 l 96 364 l 96 185 l 140 140 l 142 140 l 142 92 z "},";":{"ha":197,"x_min":0,"x_max":142,"o":"m 94 44 l 50 0 l 0 0 l 0 49 l 93 140 l 133 140 l 92 183 l 92 360 l 50 318 l 0 318 l 0 367 l 93 458 l 142 458 l 142 410 l 96 364 l 96 185 l 140 140 l 142 140 l 142 92 l 97 47 l 142 3 l 142 -90 l 96 -136 l 92 -132 l 136 -87 l 136 1 l 94 44 z "},"=":{"ha":394,"x_min":0,"x_max":322,"o":"m 183 868 l 232 868 l 232 822 l 274 822 l 318 867 l 322 864 l 276 818 l 231 818 l 185 772 l 136 772 l 136 818 l 96 818 l 96 775 l 140 732 l 274 732 l 318 776 l 322 772 l 276 726 l 47 726 l 0 772 l 4 776 l 49 732 l 132 732 l 90 774 l 90 818 l 47 818 l 0 864 l 4 867 l 49 822 l 138 822 l 183 868 z "},"?":{"ha":489,"x_min":0,"x_max":414,"o":"m 178 226 l 47 226 l 0 274 l 0 593 l 46 639 l 46 731 l 183 868 l 228 868 l 228 1000 l 183 1046 l 182 1046 l 138 1090 l 49 1090 l 6 1046 l 6 1001 l 0 1001 l 0 1049 l 47 1094 l 140 1094 l 182 1053 l 182 1094 l 367 1094 l 414 1049 l 414 774 l 188 546 l 188 321 l 232 275 l 232 226 l 186 226 l 96 138 l 96 99 l 138 140 l 188 140 l 188 92 l 94 0 l 46 0 l 46 49 l 92 94 l 92 139 l 178 226 m 51 728 l 51 644 l 228 821 l 228 863 l 186 863 l 51 728 z "},"@":{"ha":622,"x_min":0,"x_max":550,"o":"m 506 503 l 506 368 l 550 368 l 550 319 l 506 274 l 506 138 l 458 90 l 410 90 l 410 132 l 367 90 l 319 90 l 272 138 l 272 413 l 319 458 l 414 458 l 414 96 l 456 96 l 500 139 l 500 272 l 454 272 l 454 321 l 500 367 l 500 501 l 456 544 l 276 544 l 232 501 l 232 500 l 188 456 l 188 94 l 232 49 l 276 4 l 456 4 l 501 49 l 504 46 l 458 0 l 274 0 l 232 42 l 232 0 l 47 0 l 0 46 l 0 503 l 47 550 l 232 550 l 232 508 l 274 550 l 458 550 l 506 503 m 322 454 l 278 410 l 278 321 l 322 278 l 365 278 l 410 321 l 410 454 l 322 454 m 365 96 l 410 139 l 410 314 l 367 272 l 319 272 l 278 314 l 278 139 l 322 96 l 365 96 z "},"A":{"ha":711,"x_min":0,"x_max":642,"o":"m 275 1094 l 322 1094 l 642 775 l 642 46 l 594 0 l 551 0 l 501 0 l 410 92 l 410 139 l 410 140 l 410 226 l 365 226 l 229 363 l 188 363 l 188 94 l 233 49 l 233 0 l 47 0 l 0 46 l 0 1049 l 47 1094 l 233 1094 l 233 1053 l 275 1094 m 276 1090 l 233 1046 l 232 1046 l 188 1000 l 188 821 l 232 776 l 547 776 l 590 819 l 319 1090 l 276 1090 m 368 232 l 410 232 l 410 731 l 451 772 l 229 772 l 188 814 l 188 368 l 232 368 l 368 232 m 636 49 l 636 774 l 594 817 l 550 772 l 458 772 l 414 728 l 414 232 l 414 140 l 458 140 l 551 49 l 551 4 l 593 4 l 636 49 z "},"B":{"ha":711,"x_min":1,"x_max":643,"o":"m 596 772 l 369 772 l 369 731 l 643 457 l 643 46 l 596 0 l 275 0 l 231 44 l 186 0 l 1 0 l 1 49 l 47 94 l 47 1000 l 1 1046 l 1 1094 l 186 1094 l 231 1051 l 275 1094 l 368 1094 l 643 819 l 596 772 m 278 1090 l 233 1046 l 233 821 l 278 776 l 593 776 l 636 819 l 367 1090 l 278 1090 m 233 49 l 278 4 l 453 4 l 410 46 l 410 231 l 453 272 l 413 272 l 410 272 l 368 272 l 278 181 l 233 181 l 233 49 m 549 458 l 594 458 l 597 458 l 633 458 l 504 589 l 415 501 l 415 326 l 549 458 m 593 4 l 638 49 l 638 454 l 597 454 l 597 410 l 460 272 l 415 228 l 415 49 l 460 4 l 593 4 m 500 593 l 365 728 l 365 772 l 275 772 l 233 814 l 233 186 l 275 186 l 367 278 l 410 278 l 410 319 l 410 321 l 410 503 l 500 593 z "},"C":{"ha":711,"x_min":1,"x_max":642,"o":"m 233 0 l 47 0 l 1 46 l 1 1049 l 47 1094 l 233 1094 l 233 1053 l 275 1094 l 596 1094 l 642 1049 l 638 1046 l 593 1090 l 414 1090 l 369 1046 l 369 275 l 506 139 l 506 90 l 457 90 l 369 178 l 369 94 l 458 4 l 593 4 l 638 49 l 642 46 l 596 0 l 275 0 l 233 42 l 233 0 m 451 4 l 364 92 l 364 183 l 319 228 l 319 278 l 364 278 l 364 863 l 322 863 l 232 772 l 188 772 l 188 94 l 232 49 l 233 49 l 278 4 l 451 4 m 278 1090 l 233 1046 l 232 1046 l 188 1000 l 188 776 l 229 776 l 321 868 l 364 868 l 364 1049 l 407 1090 l 278 1090 z "},"D":{"ha":711,"x_min":0,"x_max":642,"o":"m 231 44 l 186 0 l 0 0 l 0 49 l 46 94 l 46 1000 l 0 1046 l 0 1094 l 186 1094 l 231 1051 l 275 1094 l 322 1094 l 642 775 l 642 686 l 642 638 l 642 46 l 594 0 l 275 0 l 231 44 m 233 49 l 276 4 l 451 4 l 410 46 l 410 454 l 410 503 l 410 636 l 368 636 l 276 544 l 233 544 l 233 49 m 636 49 l 636 632 l 458 454 l 414 454 l 414 49 l 458 4 l 593 4 l 636 49 m 636 686 l 636 774 l 525 885 l 414 774 l 414 508 l 593 686 l 636 686 m 276 1090 l 233 1046 l 233 550 l 275 550 l 365 640 l 410 640 l 410 775 l 522 888 l 319 1090 l 276 1090 z "},"E":{"ha":711,"x_min":1,"x_max":642,"o":"m 233 0 l 47 0 l 1 46 l 1 1049 l 47 1094 l 233 1094 l 233 1053 l 275 1094 l 596 1094 l 642 1049 l 638 1046 l 593 1090 l 458 1090 l 415 1046 l 415 819 l 374 776 l 503 776 l 547 822 l 550 818 l 504 772 l 458 772 l 415 728 l 415 140 l 458 140 l 551 49 l 551 4 l 593 4 l 638 49 l 642 46 l 596 0 l 551 0 l 503 0 l 275 0 l 233 42 l 233 0 m 497 4 l 410 92 l 410 140 l 410 226 l 365 226 l 229 363 l 188 363 l 188 94 l 232 49 l 233 49 l 278 4 l 497 4 m 410 731 l 451 772 l 229 772 l 188 814 l 188 368 l 232 368 l 368 232 l 410 232 l 410 731 m 278 1090 l 233 1046 l 232 1046 l 188 1000 l 188 821 l 232 776 l 365 776 l 410 821 l 410 1049 l 451 1090 l 278 1090 z "},"F":{"ha":711,"x_min":1,"x_max":642,"o":"m 233 46 l 186 0 l 1 0 l 1 49 l 46 94 l 46 1000 l 1 1046 l 1 1094 l 186 1094 l 231 1051 l 275 1094 l 503 1094 l 551 1094 l 596 1094 l 642 1049 l 638 1046 l 593 1090 l 551 1090 l 551 1046 l 458 954 l 415 954 l 415 911 l 415 819 l 374 776 l 503 776 l 547 822 l 550 818 l 504 772 l 458 772 l 415 728 l 415 364 l 278 226 l 233 226 l 233 46 m 410 731 l 451 772 l 275 772 l 233 814 l 233 232 l 275 232 l 410 367 l 410 731 m 278 1090 l 233 1046 l 233 821 l 278 776 l 365 776 l 410 821 l 410 911 l 410 954 l 410 1003 l 497 1090 l 278 1090 z "},"G":{"ha":711,"x_min":0,"x_max":642,"o":"m 233 0 l 47 0 l 0 46 l 0 1049 l 47 1094 l 233 1094 l 233 1053 l 275 1094 l 594 1094 l 642 1049 l 638 1046 l 593 1090 l 458 1090 l 414 1046 l 414 819 l 372 776 l 594 776 l 642 731 l 642 231 l 642 181 l 642 46 l 594 0 l 275 0 l 233 42 l 233 0 m 410 731 l 451 772 l 229 772 l 188 814 l 188 550 l 232 550 l 368 414 l 410 414 l 410 731 m 233 49 l 276 4 l 546 4 l 546 46 l 410 183 l 410 364 l 410 408 l 365 408 l 229 544 l 188 544 l 188 94 l 232 49 l 233 49 m 636 49 l 636 181 l 593 181 l 414 360 l 414 185 l 551 49 l 551 4 l 593 4 l 636 49 m 636 728 l 593 772 l 458 772 l 414 728 l 414 414 l 458 414 l 636 235 l 636 728 m 276 1090 l 233 1046 l 232 1046 l 188 1000 l 188 821 l 232 776 l 365 776 l 410 821 l 410 1049 l 451 1090 l 276 1090 z "},"H":{"ha":711,"x_min":1,"x_max":643,"o":"m 235 46 l 188 0 l 1 0 l 1 49 l 47 94 l 47 1000 l 1 1046 l 1 1094 l 188 1094 l 235 1049 l 235 821 l 278 776 l 458 776 l 593 913 l 594 914 l 638 914 l 638 1046 l 593 1090 l 597 1094 l 643 1049 l 643 914 l 643 864 l 643 46 l 596 0 l 549 0 l 411 138 l 411 590 l 369 590 l 278 499 l 235 499 l 235 46 m 638 49 l 638 860 l 460 681 l 415 681 l 415 139 l 551 4 l 594 4 l 638 49 m 276 772 l 235 814 l 235 504 l 276 504 l 367 596 l 411 596 l 411 681 l 411 731 l 453 772 l 276 772 z "},"I":{"ha":394,"x_min":1,"x_max":325,"o":"m 233 0 l 49 0 l 1 46 l 1 1049 l 49 1094 l 233 1094 l 233 1046 l 188 1000 l 188 776 l 232 776 l 274 735 l 274 1049 l 319 1094 l 324 1090 l 279 1046 l 279 731 l 325 685 l 325 636 l 279 636 l 279 49 l 324 4 l 319 0 l 274 46 l 274 136 l 231 136 l 188 178 l 188 94 l 233 49 l 233 0 m 231 772 l 188 772 l 188 185 l 232 140 l 274 140 l 274 638 l 228 682 l 228 732 l 271 732 l 231 772 z "},"J":{"ha":711,"x_min":1,"x_max":642,"o":"m 182 0 l 47 0 l 1 46 l 4 49 l 49 4 l 182 4 l 182 49 l 274 140 l 318 140 l 318 775 l 411 868 l 454 868 l 454 1000 l 410 1046 l 410 1094 l 594 1094 l 642 1049 l 642 46 l 594 0 l 410 0 l 410 42 l 367 0 l 231 0 l 182 0 m 324 774 l 324 140 l 324 92 l 236 4 l 365 4 l 410 49 l 454 94 l 454 863 l 413 863 l 324 774 z "},"K":{"ha":711,"x_min":0,"x_max":642,"o":"m 233 0 l 47 0 l 0 46 l 0 1049 l 47 1094 l 233 1094 l 233 1046 l 188 1000 l 188 822 l 229 822 l 501 1094 l 594 1094 l 642 1049 l 638 1046 l 593 1090 l 504 1090 l 371 957 l 415 913 l 415 728 l 371 683 l 414 640 l 413 638 l 415 638 l 415 596 l 458 596 l 642 413 l 642 411 l 642 363 l 642 46 l 596 0 l 592 4 l 638 49 l 638 363 l 593 363 l 415 542 l 415 364 l 232 181 l 188 181 l 188 94 l 233 49 l 233 0 m 410 910 l 367 953 l 233 819 l 367 688 l 410 731 l 410 910 m 229 818 l 188 818 l 188 186 l 229 186 l 410 367 l 410 546 l 410 596 l 410 638 l 229 818 z "},"L":{"ha":711,"x_min":1,"x_max":642,"o":"m 231 44 l 186 0 l 1 0 l 1 49 l 46 94 l 46 1000 l 1 1046 l 1 1094 l 186 1094 l 233 1049 l 233 686 l 278 686 l 460 503 l 460 140 l 460 139 l 460 92 l 374 4 l 593 4 l 638 49 l 642 46 l 596 0 l 368 0 l 319 0 l 275 0 l 231 44 m 456 140 l 456 501 l 413 543 l 369 501 l 369 185 l 414 140 l 456 140 m 275 681 l 233 681 l 233 49 l 278 4 l 319 4 l 319 49 l 408 139 l 364 183 l 364 503 l 408 547 l 275 681 z "},"M":{"ha":711,"x_min":0,"x_max":642,"o":"m 233 0 l 47 0 l 0 46 l 0 1049 l 47 1094 l 233 1094 l 233 1053 l 275 1094 l 322 1094 l 367 1051 l 411 1094 l 504 1094 l 642 957 l 642 275 l 642 226 l 642 46 l 594 0 l 547 0 l 460 86 l 460 46 l 413 0 l 365 0 l 229 136 l 188 136 l 188 94 l 233 49 l 233 0 m 456 49 l 456 364 l 456 408 l 411 408 l 229 590 l 188 590 l 188 140 l 232 140 l 368 4 l 411 4 l 456 49 m 636 49 l 636 226 l 593 226 l 460 360 l 460 94 l 550 4 l 593 4 l 636 49 m 413 1090 l 371 1047 l 460 957 l 460 414 l 504 414 l 636 281 l 636 956 l 501 1090 l 413 1090 m 276 1090 l 233 1046 l 232 1046 l 188 1000 l 188 596 l 232 596 l 413 414 l 456 414 l 456 956 l 319 1090 l 276 1090 z "},"N":{"ha":711,"x_min":0,"x_max":642,"o":"m 592 1090 l 596 1094 l 642 1049 l 642 822 l 642 686 l 642 683 l 642 638 l 642 46 l 594 0 l 547 0 l 364 183 l 364 268 l 276 181 l 233 181 l 233 46 l 186 0 l 0 0 l 0 49 l 46 94 l 46 1000 l 0 1046 l 0 1094 l 186 1094 l 231 1051 l 275 1094 l 322 1094 l 594 822 l 636 822 l 636 1046 l 592 1090 m 275 186 l 410 321 l 410 454 l 410 503 l 410 913 l 454 957 l 319 1090 l 276 1090 l 233 1046 l 233 186 l 275 186 m 636 49 l 636 632 l 458 454 l 414 454 l 414 319 l 369 274 l 369 185 l 550 4 l 593 4 l 636 49 m 593 686 l 636 686 l 636 818 l 593 818 l 457 953 l 414 910 l 414 508 l 593 686 z "},"O":{"ha":711,"x_min":0,"x_max":642,"o":"m 275 1094 l 594 1094 l 642 1049 l 642 231 l 642 181 l 642 46 l 594 0 l 275 0 l 233 42 l 233 0 l 47 0 l 0 46 l 0 1049 l 47 1094 l 233 1094 l 233 1053 l 275 1094 m 276 1090 l 233 1046 l 232 1046 l 188 1000 l 188 550 l 232 550 l 368 414 l 410 414 l 410 1049 l 451 1090 l 276 1090 m 233 49 l 276 4 l 546 4 l 546 46 l 410 183 l 410 364 l 410 408 l 365 408 l 229 544 l 188 544 l 188 94 l 232 49 l 233 49 m 636 49 l 636 181 l 593 181 l 414 360 l 414 185 l 551 49 l 551 4 l 593 4 l 636 49 m 636 235 l 636 1046 l 593 1090 l 458 1090 l 414 1046 l 414 414 l 458 414 l 636 235 z "},"P":{"ha":711,"x_min":1,"x_max":643,"o":"m 275 1094 l 368 1094 l 643 819 l 596 772 l 460 772 l 415 728 l 415 364 l 278 226 l 233 226 l 233 46 l 186 0 l 1 0 l 1 49 l 47 94 l 47 1000 l 1 1046 l 1 1094 l 186 1094 l 231 1051 l 275 1094 m 278 1090 l 233 1046 l 233 821 l 278 776 l 365 776 l 365 821 l 365 822 l 457 914 l 507 914 l 543 914 l 367 1090 l 278 1090 m 410 731 l 453 772 l 414 772 l 365 772 l 275 772 l 233 814 l 233 232 l 275 232 l 410 367 l 410 731 m 593 776 l 636 819 l 549 908 l 507 908 l 507 864 l 419 776 l 593 776 z "},"Q":{"ha":767,"x_min":0,"x_max":686,"o":"m 642 181 l 642 49 l 686 4 l 683 0 l 639 44 l 594 0 l 275 0 l 233 42 l 233 0 l 47 0 l 0 46 l 0 1049 l 47 1094 l 233 1094 l 233 1053 l 275 1094 l 322 1094 l 642 775 l 642 231 l 642 181 m 636 235 l 636 774 l 457 953 l 414 910 l 414 414 l 458 414 l 636 235 m 276 1090 l 233 1046 l 232 1046 l 188 1000 l 188 550 l 231 550 l 368 414 l 410 414 l 410 913 l 454 957 l 319 1090 l 276 1090 m 233 49 l 276 4 l 546 4 l 546 46 l 410 183 l 410 364 l 410 408 l 365 408 l 229 544 l 188 544 l 188 94 l 232 49 l 233 49 m 593 4 l 636 49 l 636 181 l 593 181 l 414 360 l 414 185 l 551 49 l 551 4 l 593 4 z "},"R":{"ha":711,"x_min":1,"x_max":643,"o":"m 233 47 l 186 0 l 1 0 l 1 49 l 47 94 l 47 1001 l 1 1047 l 1 1096 l 186 1096 l 231 1051 l 275 1096 l 368 1096 l 643 821 l 596 772 l 369 772 l 369 731 l 643 458 l 643 47 l 594 -1 l 365 229 l 365 269 l 278 182 l 233 182 l 233 47 m 638 49 l 638 456 l 593 500 l 551 500 l 551 456 l 460 364 l 415 364 l 415 319 l 369 274 l 369 231 l 594 6 l 638 49 m 589 506 l 365 729 l 365 772 l 275 772 l 233 814 l 233 186 l 275 186 l 410 322 l 410 364 l 410 413 l 503 506 l 551 506 l 589 506 m 278 1090 l 233 1047 l 233 821 l 278 778 l 593 778 l 636 821 l 367 1090 l 278 1090 z "},"S":{"ha":711,"x_min":0,"x_max":642,"o":"m 275 0 l 47 0 l 0 46 l 0 94 l 318 413 l 318 728 l 275 772 l 93 772 l 0 864 l 0 1049 l 47 1094 l 233 1094 l 233 1053 l 275 1094 l 594 1094 l 642 1049 l 638 1046 l 593 1090 l 504 1090 l 460 1046 l 460 821 l 504 776 l 642 639 l 642 46 l 594 0 l 410 0 l 410 42 l 368 0 l 324 0 l 275 0 m 278 775 l 318 735 l 318 776 l 497 776 l 456 819 l 456 1049 l 497 1090 l 276 1090 l 233 1046 l 232 1046 l 188 1000 l 188 913 l 278 821 l 278 775 m 324 410 l 142 228 l 142 186 l 186 186 l 324 49 l 324 4 l 365 4 l 410 49 l 456 94 l 456 592 l 324 724 l 324 410 m 6 92 l 6 49 l 50 4 l 269 4 l 138 138 l 138 186 l 138 224 l 6 92 z "},"T":{"ha":711,"x_min":1,"x_max":642,"o":"m 414 46 l 367 0 l 182 0 l 182 49 l 228 94 l 228 1000 l 183 1046 l 182 1046 l 138 1090 l 49 1090 l 4 1046 l 1 1049 l 47 1094 l 140 1094 l 182 1053 l 182 1094 l 367 1094 l 593 1094 l 642 1094 l 642 1046 l 549 954 l 506 954 l 506 410 l 458 363 l 414 363 l 414 46 m 506 1008 l 588 1090 l 463 1090 l 506 1049 l 506 1008 m 456 1090 l 372 1090 l 414 1049 l 414 368 l 456 368 l 500 413 l 500 954 l 500 1003 l 500 1046 l 456 1090 z "},"U":{"ha":711,"x_min":0,"x_max":642,"o":"m 233 0 l 47 0 l 0 46 l 0 1049 l 47 1094 l 233 1094 l 233 1046 l 188 1000 l 188 550 l 232 550 l 368 414 l 410 414 l 413 414 l 451 414 l 410 456 l 410 957 l 547 1094 l 594 1094 l 642 1049 l 642 231 l 642 181 l 642 46 l 594 0 l 275 0 l 233 42 l 233 0 m 636 49 l 636 181 l 593 181 l 414 360 l 414 49 l 458 4 l 593 4 l 636 49 m 414 457 l 458 414 l 460 413 l 636 235 l 636 1046 l 593 1090 l 550 1090 l 414 956 l 414 457 m 229 544 l 188 544 l 188 94 l 232 49 l 233 49 l 276 4 l 451 4 l 410 46 l 410 364 l 410 365 l 410 408 l 365 408 l 229 544 z "},"V":{"ha":711,"x_min":0,"x_max":642,"o":"m 231 44 l 186 0 l 0 0 l 0 49 l 46 94 l 46 1000 l 0 1046 l 0 1094 l 186 1094 l 233 1049 l 233 640 l 275 640 l 365 732 l 410 732 l 410 775 l 593 958 l 636 958 l 636 1046 l 592 1090 l 596 1094 l 642 1049 l 642 686 l 642 638 l 642 319 l 322 0 l 275 0 l 231 44 m 636 321 l 636 632 l 458 454 l 414 454 l 414 231 l 481 164 l 636 321 m 594 954 l 414 774 l 414 508 l 593 686 l 636 686 l 636 954 l 594 954 m 276 636 l 233 636 l 233 49 l 276 4 l 319 4 l 476 161 l 410 228 l 410 454 l 410 503 l 410 726 l 368 726 l 276 636 z "},"W":{"ha":711,"x_min":0,"x_max":642,"o":"m 233 1046 l 188 1000 l 188 958 l 229 958 l 365 1094 l 413 1094 l 460 1049 l 460 1008 l 547 1094 l 594 1094 l 642 1049 l 642 503 l 642 454 l 642 138 l 504 0 l 411 0 l 367 44 l 322 0 l 275 0 l 233 42 l 233 0 l 47 0 l 0 46 l 0 1049 l 47 1094 l 233 1094 l 233 1046 m 319 4 l 456 139 l 456 592 l 456 640 l 456 726 l 413 726 l 232 544 l 188 544 l 188 94 l 232 49 l 233 49 l 276 4 l 319 4 m 636 139 l 636 454 l 593 454 l 460 586 l 460 138 l 371 47 l 413 4 l 501 4 l 636 139 m 550 1090 l 460 1000 l 460 640 l 504 640 l 636 508 l 636 1046 l 593 1090 l 550 1090 m 232 954 l 188 954 l 188 550 l 229 550 l 411 732 l 456 732 l 456 1046 l 411 1090 l 368 1090 l 232 954 z "},"X":{"ha":711,"x_min":0,"x_max":642,"o":"m 642 1049 l 642 956 l 600 914 l 642 914 l 642 864 l 504 728 l 504 726 l 458 681 l 413 681 l 371 638 l 642 367 l 642 46 l 594 0 l 410 0 l 410 42 l 368 0 l 47 0 l 0 46 l 0 275 l 228 503 l 228 546 l 0 774 l 0 1049 l 47 1094 l 233 1094 l 233 1053 l 275 1094 l 594 1094 l 642 1049 m 6 49 l 50 4 l 315 4 l 274 46 l 274 413 l 318 457 l 233 542 l 233 501 l 6 274 l 6 49 m 365 4 l 410 49 l 456 94 l 456 319 l 321 453 l 278 410 l 278 49 l 322 4 l 365 4 m 636 957 l 636 1046 l 593 1090 l 276 1090 l 233 1046 l 232 1046 l 188 1000 l 188 821 l 367 642 l 411 686 l 457 686 l 497 726 l 456 726 l 456 775 l 592 913 l 593 914 l 636 957 z "},"Y":{"ha":711,"x_min":0,"x_max":642,"o":"m 547 1094 l 594 1094 l 642 1049 l 642 774 l 460 592 l 460 549 l 460 547 l 460 46 l 413 0 l 228 0 l 228 49 l 274 94 l 274 501 l 0 774 l 0 1049 l 47 1094 l 233 1094 l 233 1046 l 188 1000 l 188 821 l 274 735 l 274 821 l 456 1004 l 547 1094 m 456 593 l 590 729 l 547 772 l 456 864 l 456 914 l 497 914 l 456 956 l 456 996 l 278 819 l 278 731 l 456 553 l 456 593 m 636 775 l 636 1046 l 593 1090 l 550 1090 l 460 1000 l 460 957 l 504 914 l 504 913 l 596 821 l 596 772 l 554 772 l 594 732 l 636 775 z "},"Z":{"ha":711,"x_min":0,"x_max":642,"o":"m 368 278 l 413 278 l 642 47 l 594 0 l 274 0 l 232 42 l 232 0 l 47 0 l 0 46 l 0 367 l 317 683 l 136 864 l 136 908 l 90 908 l 90 957 l 224 1090 l 49 1090 l 4 1046 l 1 1049 l 47 1094 l 229 1094 l 278 1094 l 278 1053 l 319 1094 l 367 1094 l 408 1053 l 408 1094 l 594 1094 l 642 1049 l 642 774 l 279 411 l 368 321 l 368 278 m 142 867 l 321 688 l 454 821 l 454 1000 l 410 1046 l 408 1046 l 365 1090 l 322 1090 l 278 1046 l 276 1046 l 142 910 l 142 867 m 232 49 l 276 4 l 406 4 l 364 46 l 364 319 l 275 407 l 186 319 l 186 94 l 232 49 m 592 4 l 635 47 l 411 272 l 368 272 l 368 49 l 413 4 l 592 4 z "},"[":{"ha":306,"x_min":1,"x_max":233,"o":"m 1 1049 l 47 1094 l 233 1094 l 233 1046 l 188 1000 l 188 94 l 233 49 l 233 0 l 47 0 l 1 46 l 1 1049 z "},"\\":{"ha":419,"x_min":0,"x_max":369,"o":"m 192 499 l 369 321 l 369 46 l 324 0 l 319 3 l 364 47 l 364 318 l 183 499 l 183 500 l 138 546 l 138 594 l 179 594 l 0 774 l 0 1049 l 47 1094 l 50 1090 l 6 1046 l 6 775 l 186 594 l 188 594 l 233 549 l 233 499 l 192 499 z "},"]":{"ha":306,"x_min":1,"x_max":233,"o":"m 233 46 l 186 0 l 1 0 l 1 49 l 46 94 l 46 1000 l 1 1046 l 1 1094 l 186 1094 l 233 1049 l 233 46 z "},"_":{"ha":711,"x_min":1,"x_max":642,"o":"m 594 0 l 546 0 l 546 42 l 504 0 l 47 0 l 1 46 l 4 49 l 49 4 l 501 4 l 546 49 l 593 96 l 642 96 l 642 46 l 594 0 z "},"a":{"ha":711,"x_min":0,"x_max":642,"o":"m 413 732 l 457 776 l 642 776 l 642 728 l 596 682 l 596 94 l 642 49 l 642 0 l 457 0 l 413 44 l 368 0 l 324 0 l 275 0 l 93 0 l 0 92 l 0 367 l 93 458 l 365 458 l 410 503 l 410 728 l 365 772 l 50 772 l 4 728 l 1 731 l 47 776 l 368 776 l 413 732 m 94 4 l 269 4 l 228 46 l 228 93 l 228 96 l 228 413 l 269 454 l 94 454 l 6 364 l 6 94 l 94 4 m 365 4 l 410 49 l 410 496 l 368 454 l 276 454 l 233 410 l 233 96 l 276 96 l 324 49 l 324 4 l 365 4 z "},"b":{"ha":711,"x_min":0,"x_max":642,"o":"m 275 776 l 368 776 l 642 503 l 642 46 l 594 0 l 275 0 l 231 44 l 186 0 l 0 0 l 0 49 l 46 94 l 46 1000 l 0 1046 l 0 1094 l 186 1094 l 233 1049 l 233 735 l 275 776 m 276 772 l 233 728 l 233 232 l 275 232 l 365 322 l 410 322 l 410 365 l 410 367 l 410 639 l 454 683 l 365 772 l 276 772 m 501 458 l 547 504 l 633 504 l 457 681 l 414 638 l 414 372 l 501 458 m 233 49 l 276 4 l 497 4 l 410 92 l 410 275 l 451 318 l 413 318 l 410 318 l 368 318 l 276 226 l 233 226 l 233 49 m 593 4 l 636 49 l 636 499 l 550 499 l 508 458 l 551 458 l 551 410 l 460 318 l 458 318 l 414 274 l 414 94 l 504 4 l 593 4 z "},"c":{"ha":711,"x_min":1,"x_max":642,"o":"m 233 0 l 47 0 l 1 46 l 1 731 l 47 776 l 233 776 l 233 735 l 275 776 l 596 776 l 642 731 l 638 728 l 593 772 l 458 772 l 415 728 l 415 231 l 506 139 l 506 90 l 457 90 l 415 132 l 415 49 l 458 4 l 593 4 l 638 49 l 642 46 l 596 0 l 275 0 l 233 42 l 233 0 m 451 4 l 410 46 l 410 138 l 364 183 l 364 232 l 410 232 l 410 590 l 368 590 l 232 454 l 188 454 l 188 94 l 232 49 l 233 49 l 278 4 l 451 4 m 278 772 l 233 728 l 232 728 l 188 682 l 188 458 l 229 458 l 365 596 l 410 596 l 410 731 l 451 772 l 278 772 z "},"d":{"ha":711,"x_min":1,"x_max":643,"o":"m 411 1094 l 596 1094 l 643 1049 l 643 46 l 596 0 l 411 0 l 411 42 l 369 0 l 49 0 l 1 46 l 1 503 l 276 776 l 414 776 l 457 735 l 457 1000 l 411 1046 l 411 1094 m 278 772 l 11 504 l 51 504 l 142 414 l 185 414 l 229 458 l 231 458 l 275 503 l 275 685 l 363 772 l 278 772 m 7 49 l 51 4 l 271 4 l 229 46 l 229 274 l 185 318 l 139 318 l 139 367 l 181 408 l 140 408 l 49 499 l 7 499 l 7 49 m 367 4 l 411 49 l 457 94 l 457 728 l 413 772 l 369 772 l 279 682 l 279 501 l 238 458 l 279 458 l 279 410 l 190 319 l 235 275 l 235 49 l 278 4 l 367 4 z "},"e":{"ha":711,"x_min":1,"x_max":643,"o":"m 276 776 l 596 776 l 643 731 l 643 546 l 551 454 l 465 454 l 553 367 l 553 318 l 503 318 l 458 363 l 415 319 l 415 49 l 460 4 l 594 4 l 639 49 l 643 46 l 596 0 l 276 0 l 235 42 l 235 0 l 49 0 l 1 46 l 1 731 l 49 776 l 235 776 l 235 735 l 276 776 m 411 321 l 456 365 l 411 410 l 367 454 l 189 454 l 189 94 l 233 49 l 235 49 l 278 4 l 453 4 l 411 46 l 411 321 m 638 549 l 638 728 l 594 772 l 278 772 l 235 728 l 233 728 l 189 682 l 189 458 l 369 458 l 411 417 l 411 458 l 458 458 l 460 458 l 549 458 l 638 549 z "},"f":{"ha":622,"x_min":-46,"x_max":549,"o":"m 90 94 l 90 772 l 0 772 l -46 818 l -42 822 l 3 776 l 90 776 l 90 1049 l 136 1094 l 322 1094 l 322 1053 l 364 1094 l 500 1094 l 501 1094 l 549 1094 l 549 1046 l 503 999 l 453 999 l 453 1049 l 496 1090 l 367 1090 l 322 1046 l 321 1046 l 276 1000 l 276 776 l 410 776 l 454 822 l 457 818 l 411 772 l 276 772 l 276 46 l 229 0 l 44 0 l 44 49 l 90 94 z "},"g":{"ha":711,"x_min":0,"x_max":642,"o":"m 642 728 l 596 682 l 596 -224 l 642 -269 l 642 -318 l 457 -318 l 413 -275 l 368 -318 l 47 -318 l 1 -272 l 4 -269 l 50 -314 l 182 -314 l 182 -269 l 365 -86 l 410 -86 l 410 42 l 368 0 l 93 0 l 0 92 l 0 546 l 0 596 l 0 731 l 47 776 l 368 776 l 413 732 l 457 776 l 642 776 l 642 728 m 410 728 l 365 772 l 232 772 l 188 728 l 188 457 l 188 414 l 232 414 l 368 278 l 410 278 l 410 728 m 6 728 l 6 596 l 50 596 l 182 463 l 182 731 l 224 772 l 50 772 l 6 728 m 6 94 l 94 4 l 274 4 l 274 46 l 182 138 l 182 408 l 139 408 l 6 542 l 6 94 m 365 4 l 410 49 l 410 272 l 365 272 l 229 408 l 188 408 l 188 139 l 278 49 l 278 4 l 365 4 m 365 -314 l 410 -269 l 410 -92 l 368 -92 l 188 -272 l 188 -314 l 365 -314 z "},"h":{"ha":711,"x_min":1,"x_max":643,"o":"m 235 226 l 235 46 l 188 0 l 1 0 l 1 49 l 47 94 l 47 1000 l 1 1046 l 1 1094 l 188 1094 l 235 1049 l 235 821 l 278 776 l 506 776 l 643 639 l 643 46 l 597 0 l 593 4 l 638 49 l 638 590 l 597 590 l 597 546 l 461 410 l 460 408 l 278 226 l 235 226 m 638 638 l 503 772 l 329 772 l 415 685 l 415 549 l 458 506 l 549 596 l 596 596 l 597 596 l 638 596 l 638 638 m 276 772 l 235 814 l 235 232 l 276 232 l 453 408 l 411 408 l 411 457 l 456 501 l 411 546 l 411 682 l 321 772 l 276 772 z "},"i":{"ha":394,"x_min":1,"x_max":324,"o":"m 274 140 l 274 731 l 321 776 l 324 772 l 279 728 l 279 49 l 324 4 l 321 0 l 274 46 l 274 136 l 231 136 l 189 178 l 189 94 l 233 49 l 233 0 l 49 0 l 1 46 l 1 731 l 49 776 l 135 776 l 93 819 l 93 910 l 47 956 l 47 1004 l 96 1004 l 189 913 l 189 863 l 139 863 l 97 904 l 97 821 l 142 776 l 233 776 l 233 728 l 189 682 l 189 185 l 232 140 l 274 140 z "},"j":{"ha":669,"x_min":-44,"x_max":596,"o":"m 226 -276 l 185 -318 l 1 -318 l -44 -272 l -42 -269 l 3 -314 l 183 -314 l 226 -269 l 228 -269 l 317 -179 l 272 -136 l 272 457 l 365 550 l 408 550 l 408 682 l 364 728 l 364 776 l 456 776 l 500 821 l 500 904 l 458 863 l 408 863 l 408 913 l 501 1004 l 550 1004 l 550 956 l 504 910 l 504 819 l 463 776 l 549 776 l 596 731 l 596 -136 l 413 -318 l 226 -318 l 226 -276 m 278 -133 l 321 -176 l 408 -87 l 408 544 l 367 544 l 278 456 l 278 -133 z "},"k":{"ha":711,"x_min":1,"x_max":643,"o":"m 233 0 l 49 0 l 1 46 l 1 1049 l 49 1094 l 233 1094 l 233 1046 l 189 1000 l 189 503 l 229 463 l 229 503 l 503 776 l 596 776 l 642 731 l 639 728 l 593 772 l 506 772 l 371 638 l 415 593 l 415 410 l 374 368 l 414 368 l 506 276 l 507 275 l 643 139 l 643 46 l 597 0 l 593 4 l 638 49 l 638 138 l 507 268 l 507 226 l 457 226 l 365 318 l 365 319 l 189 496 l 189 94 l 233 49 l 233 0 m 233 501 l 233 457 l 365 326 l 365 368 l 367 368 l 411 413 l 411 592 l 368 635 l 233 501 z "},"l":{"ha":489,"x_min":0,"x_max":414,"o":"m 231 44 l 186 0 l 0 0 l 0 49 l 46 94 l 46 1000 l 0 1046 l 0 1094 l 186 1094 l 232 1049 l 232 49 l 276 4 l 318 4 l 318 49 l 365 96 l 414 96 l 414 46 l 367 0 l 321 0 l 318 0 l 275 0 l 231 44 z "},"m":{"ha":711,"x_min":0,"x_max":642,"o":"m 188 499 l 188 94 l 233 49 l 233 0 l 47 0 l 0 46 l 0 731 l 47 776 l 233 776 l 233 735 l 275 776 l 322 776 l 367 732 l 411 776 l 504 776 l 642 639 l 642 185 l 642 136 l 642 46 l 596 0 l 592 4 l 636 49 l 636 136 l 593 136 l 460 268 l 460 46 l 414 0 l 410 4 l 456 49 l 456 274 l 456 318 l 411 318 l 229 499 l 188 499 m 413 772 l 371 729 l 460 639 l 460 322 l 504 322 l 636 190 l 636 638 l 501 772 l 413 772 m 276 772 l 233 728 l 232 728 l 188 682 l 188 504 l 232 504 l 413 322 l 456 322 l 456 638 l 319 772 l 276 772 z "},"n":{"ha":711,"x_min":0,"x_max":642,"o":"m 275 776 l 504 776 l 642 639 l 642 550 l 642 501 l 642 46 l 596 0 l 592 4 l 636 49 l 636 496 l 458 318 l 414 318 l 414 274 l 276 136 l 233 136 l 233 46 l 186 0 l 0 0 l 0 49 l 46 94 l 46 682 l 0 728 l 0 776 l 186 776 l 231 732 l 275 776 m 410 275 l 410 318 l 410 367 l 410 731 l 451 772 l 276 772 l 233 728 l 233 140 l 275 140 l 410 275 m 636 550 l 636 638 l 501 772 l 458 772 l 414 728 l 414 372 l 593 550 l 636 550 z "},"o":{"ha":711,"x_min":0,"x_max":642,"o":"m 275 776 l 594 776 l 642 731 l 642 185 l 642 136 l 642 46 l 594 0 l 275 0 l 233 42 l 233 0 l 47 0 l 0 46 l 0 731 l 47 776 l 233 776 l 233 735 l 275 776 m 276 772 l 233 728 l 232 728 l 188 682 l 188 504 l 232 504 l 368 368 l 410 368 l 410 731 l 451 772 l 276 772 m 233 49 l 276 4 l 500 4 l 500 46 l 410 138 l 410 319 l 410 363 l 365 363 l 229 499 l 188 499 l 188 94 l 232 49 l 233 49 m 636 49 l 636 136 l 593 136 l 414 314 l 414 139 l 506 49 l 506 4 l 593 4 l 636 49 m 636 190 l 636 728 l 593 772 l 458 772 l 414 728 l 414 368 l 458 368 l 636 190 z "},"p":{"ha":711,"x_min":0,"x_max":642,"o":"m 275 776 l 368 776 l 642 503 l 642 46 l 594 0 l 275 0 l 233 42 l 233 -272 l 186 -318 l 0 -318 l 0 -269 l 46 -224 l 46 682 l 0 728 l 0 776 l 186 776 l 231 732 l 275 776 m 276 772 l 233 728 l 233 504 l 276 504 l 368 414 l 411 414 l 501 504 l 547 550 l 588 550 l 365 772 l 276 772 m 233 49 l 276 4 l 497 4 l 410 92 l 410 321 l 451 363 l 410 363 l 410 408 l 365 408 l 275 499 l 233 499 l 233 49 m 636 49 l 636 501 l 593 544 l 550 544 l 508 504 l 551 504 l 551 456 l 460 364 l 458 363 l 414 319 l 414 94 l 504 4 l 593 4 l 636 49 z "},"q":{"ha":711,"x_min":0,"x_max":642,"o":"m 413 732 l 457 776 l 642 776 l 642 728 l 596 682 l 596 -224 l 642 -269 l 642 -318 l 457 -318 l 410 -272 l 410 42 l 368 0 l 47 0 l 0 46 l 0 503 l 275 776 l 368 776 l 413 732 m 276 772 l 6 501 l 6 458 l 50 458 l 140 368 l 142 367 l 186 322 l 229 322 l 365 458 l 410 458 l 410 728 l 365 772 l 276 772 m 6 49 l 50 4 l 315 4 l 228 92 l 228 183 l 183 226 l 183 228 l 92 319 l 92 368 l 133 368 l 47 454 l 6 454 l 6 49 m 365 4 l 410 49 l 410 454 l 368 454 l 232 318 l 190 318 l 233 275 l 233 226 l 190 226 l 233 185 l 233 94 l 322 4 l 365 4 z "},"r":{"ha":711,"x_min":1,"x_max":642,"o":"m 506 776 l 550 776 l 642 685 l 638 682 l 547 772 l 506 772 l 506 728 l 414 636 l 369 592 l 369 319 l 278 226 l 233 226 l 233 46 l 186 0 l 1 0 l 1 49 l 46 94 l 46 682 l 1 728 l 1 776 l 186 776 l 231 732 l 275 776 l 457 776 l 458 776 l 503 776 l 506 776 m 364 593 l 407 636 l 364 636 l 364 685 l 451 772 l 278 772 l 233 728 l 233 232 l 275 232 l 364 321 l 364 593 z "},"s":{"ha":711,"x_min":0,"x_max":642,"o":"m 458 458 l 504 458 l 642 321 l 642 46 l 594 0 l 410 0 l 410 42 l 368 0 l 278 0 l 229 0 l 47 0 l 1 46 l 4 49 l 50 4 l 224 4 l 138 92 l 138 140 l 138 185 l 318 367 l 318 410 l 275 454 l 93 454 l 0 546 l 0 731 l 47 776 l 233 776 l 233 735 l 275 776 l 594 776 l 642 731 l 638 728 l 593 772 l 458 772 l 414 728 l 414 503 l 458 458 m 278 457 l 318 417 l 318 458 l 451 458 l 410 501 l 410 731 l 451 772 l 276 772 l 233 728 l 232 728 l 188 682 l 188 593 l 278 503 l 278 457 m 365 4 l 410 49 l 456 94 l 456 274 l 324 404 l 324 364 l 142 183 l 142 140 l 186 140 l 278 49 l 278 4 l 365 4 z "},"t":{"ha":531,"x_min":-44,"x_max":460,"o":"m 364 822 l 410 868 l 460 868 l 460 819 l 413 772 l 364 772 l 364 814 l 322 772 l 278 772 l 278 46 l 231 0 l 46 0 l 46 49 l 90 94 l 90 772 l 1 772 l -44 818 l -42 822 l 3 776 l 90 776 l 90 1000 l 46 1046 l 46 1094 l 231 1094 l 275 1051 l 319 1094 l 365 1094 l 365 1090 l 322 1090 l 278 1046 l 278 776 l 319 776 l 364 821 l 364 822 z "},"u":{"ha":711,"x_min":1,"x_max":643,"o":"m 593 772 l 597 776 l 643 731 l 643 46 l 596 0 l 276 0 l 235 42 l 235 0 l 49 0 l 1 46 l 1 731 l 49 776 l 235 776 l 235 728 l 189 682 l 189 596 l 233 596 l 460 368 l 461 367 l 597 231 l 597 181 l 556 181 l 596 140 l 638 140 l 638 728 l 593 772 m 235 49 l 278 4 l 453 4 l 411 46 l 411 231 l 456 275 l 411 319 l 411 368 l 453 368 l 231 590 l 189 590 l 189 94 l 233 49 l 235 49 m 594 4 l 638 49 l 638 136 l 594 136 l 549 181 l 549 182 l 458 271 l 415 228 l 415 49 l 460 4 l 594 4 z "},"v":{"ha":711,"x_min":0,"x_max":642,"o":"m 592 772 l 596 776 l 642 731 l 642 319 l 322 0 l 275 0 l 231 44 l 186 0 l 0 0 l 0 49 l 46 94 l 46 682 l 0 728 l 0 776 l 186 776 l 233 731 l 233 322 l 275 322 l 365 414 l 411 414 l 547 549 l 547 550 l 593 596 l 636 596 l 636 728 l 592 772 m 319 4 l 454 139 l 410 183 l 410 321 l 451 363 l 410 363 l 410 408 l 368 408 l 276 318 l 233 318 l 233 49 l 276 4 l 319 4 m 457 142 l 636 321 l 636 590 l 594 590 l 554 550 l 596 550 l 596 501 l 460 364 l 458 363 l 414 319 l 414 185 l 457 142 z "},"w":{"ha":711,"x_min":0,"x_max":642,"o":"m 592 772 l 596 776 l 642 731 l 642 275 l 642 226 l 642 138 l 504 0 l 411 0 l 367 44 l 322 0 l 275 0 l 233 42 l 233 0 l 47 0 l 0 46 l 0 731 l 47 776 l 233 776 l 233 728 l 188 682 l 188 368 l 229 368 l 411 550 l 456 550 l 456 728 l 410 772 l 414 776 l 460 731 l 460 414 l 504 414 l 636 281 l 636 728 l 592 772 m 319 4 l 456 139 l 456 364 l 456 414 l 456 544 l 413 544 l 232 363 l 188 363 l 188 94 l 232 49 l 233 49 l 276 4 l 319 4 m 636 139 l 636 226 l 593 226 l 460 360 l 460 138 l 371 47 l 413 4 l 501 4 l 636 139 z "},"x":{"ha":711,"x_min":0,"x_max":642,"o":"m 592 772 l 596 776 l 642 731 l 642 682 l 600 640 l 642 640 l 642 592 l 550 500 l 550 499 l 504 454 l 458 454 l 415 411 l 642 185 l 642 46 l 594 0 l 410 0 l 410 42 l 368 0 l 319 0 l 274 46 l 274 183 l 185 271 l 6 92 l 6 49 l 50 4 l 47 0 l 0 46 l 0 94 l 229 322 l 269 322 l 0 592 l 0 731 l 47 776 l 233 776 l 233 728 l 188 682 l 188 639 l 413 414 l 457 458 l 501 458 l 542 499 l 500 499 l 500 549 l 592 640 l 593 640 l 636 685 l 636 728 l 592 772 m 365 4 l 410 49 l 456 94 l 456 138 l 275 318 l 232 318 l 189 275 l 278 185 l 278 49 l 322 4 l 365 4 z "},"y":{"ha":711,"x_min":1,"x_max":643,"o":"m 411 731 l 457 776 l 643 776 l 643 728 l 597 682 l 597 -224 l 643 -269 l 643 -318 l 457 -318 l 413 -275 l 368 -318 l 49 -318 l 3 -272 l 6 -269 l 50 -314 l 183 -314 l 183 -269 l 367 -86 l 411 -86 l 411 42 l 368 0 l 94 0 l 1 92 l 1 731 l 47 776 l 51 772 l 7 728 l 7 550 l 50 550 l 96 504 l 97 504 l 186 414 l 367 596 l 411 596 l 411 731 m 7 94 l 96 4 l 271 4 l 229 46 l 229 274 l 185 318 l 47 456 l 47 504 l 89 504 l 49 544 l 7 544 l 7 94 m 367 4 l 411 49 l 411 590 l 368 590 l 189 411 l 233 367 l 233 318 l 192 318 l 233 275 l 233 49 l 278 4 l 367 4 m 367 -314 l 411 -269 l 411 -92 l 368 -92 l 189 -272 l 189 -314 l 367 -314 z "},"z":{"ha":711,"x_min":0,"x_max":642,"o":"m 410 776 l 594 776 l 642 731 l 642 592 l 369 319 l 369 139 l 504 4 l 593 4 l 638 49 l 642 46 l 594 0 l 275 0 l 233 42 l 233 0 l 47 0 l 0 46 l 0 185 l 226 411 l 182 456 l 182 636 l 138 636 l 138 685 l 224 772 l 50 772 l 4 728 l 1 731 l 47 776 l 229 776 l 231 776 l 278 776 l 278 735 l 319 776 l 368 776 l 410 735 l 410 776 m 188 457 l 231 414 l 456 639 l 456 682 l 410 728 l 365 772 l 322 772 l 278 728 l 188 638 l 188 457 m 497 4 l 364 138 l 364 314 l 188 138 l 188 94 l 232 49 l 233 49 l 276 4 l 497 4 z "}}}
